<svg width="247" height="69" viewBox="0 0 247 69" fill="none" xmlns="http://www.w3.org/2000/svg">
<path d="M72.9879 64.3459V2.22338H93.3944V64.3459H72.9879Z" fill="#7C8DFF"/>
<path d="M150.365 65.7906C146.03 65.7906 142.449 65.1585 139.619 63.8944C136.79 62.5701 134.533 60.7642 132.847 58.4768C131.162 56.1893 129.898 53.5106 129.055 50.4406C128.212 47.3705 127.64 44.0598 127.339 40.5082H123.096V64.3459H103.321V2.22338H128.874C138.747 2.22338 145.85 3.96907 150.184 7.46045C154.578 10.8916 156.775 15.5568 156.775 21.4561C156.775 25.0077 155.812 28.1981 153.886 31.0273C151.96 33.7963 148.86 36.1139 144.586 37.9799C144.826 39.3043 145.037 40.3878 145.218 41.2305C145.398 42.0733 145.669 43.0063 146.03 44.0297C146.813 46.1967 147.776 47.7016 148.92 48.5444C150.124 49.3871 151.749 49.8085 153.796 49.8085C155.12 49.8085 156.444 49.6279 157.769 49.2667L158.852 64.075C157.648 64.5566 156.354 64.9478 154.97 65.2488C153.645 65.61 152.11 65.7906 150.365 65.7906ZM123.096 28.1379H126.527C130.981 28.1379 134.112 27.6563 135.917 26.6931C137.784 25.6698 138.717 23.9542 138.717 21.5464C138.717 19.4997 137.964 18.0249 136.459 17.1219C134.954 16.1588 132.577 15.6772 129.326 15.6772H123.096V28.1379Z" fill="#7C8DFF"/>
<path d="M164.34 64.3459V2.22338H207.953V15.9481H186.282V26.964H206.056V38.3411H186.282V50.1697H207.953V64.3459H164.34Z" fill="#7C8DFF"/>
<path d="M221.908 40.2988L224.663 14.6391L228.091 1.06958L246.563 5.7352L243.135 19.3047L233.463 43.2176L221.908 40.2988ZM221.981 64.3448C218.771 63.534 216.533 62.0686 215.268 59.9486C214.018 57.7702 213.71 55.4262 214.343 52.9165C214.992 50.3485 216.427 48.476 218.649 47.2988C220.886 46.0632 223.493 45.8213 226.469 46.5731C229.446 47.3249 231.588 48.7974 232.897 50.9906C234.264 53.1984 234.645 55.4988 234.041 57.8917C233.363 60.5764 231.971 62.5221 229.866 63.7288C227.819 64.9502 225.191 65.1556 221.981 64.3448Z" fill="#7C8DFF"/>
<path d="M6.44939 68.0112L0 6.2244L20.2064 4.11523L22.6343 27.3751L41.7631 25.3784L39.3352 2.11855L59.6315 0L66.0808 61.7868L45.7846 63.9054L43.2442 39.5678L24.1154 41.5645L26.6558 65.902L6.44939 68.0112Z" fill="#7C8DFF"/>
</svg>
